<svg width="1279" height="439" viewBox="0 0 1279 439" fill="none" xmlns="http://www.w3.org/2000/svg">
<path d="M1279 307C986.635 263.003 612.475 -1.53117 582.557 0.00670266C538 -0.237163 454.002 36.9465 528.932 67.301C654.867 118.318 580.629 249.766 540.288 289.434C498.433 357.467 628 454 1279 392V307Z" fill="#ce6b00"/>
<path d="M576 0.5C458 -9.10179 241 233.061 0 297V438.606H1280V382C1208.67 392.139 924.287 416.655 730 389.217C601 371 627.437 294.292 650 224C676 143 636 136 579.5 90.9998C490.894 20.4288 566.5 -0.273023 576 0.5Z" fill="#321C05"/>
</svg>
