<svg width="1280" height="335" viewBox="0 0 1280 335" fill="none" xmlns="http://www.w3.org/2000/svg">
<path d="M94.5 17.9999C51.9735 24.7146 77.3633 21.0354 58 22.4999C22 25.2225 46.5 36.9999 0 20.8627V335H1280V38.8908C1229 19.028 1252.97 44.5078 1195.5 22.4999C1164.77 10.7312 1119.73 41.3714 1092 32.9999C1059.54 23.1988 1056.12 32.8061 995.455 20.8627C938.235 9.59716 918.394 26.8721 894.495 20.8627C870.596 14.8534 865.231 44.9001 803.29 38.8908C741.348 32.8815 723.77 -19.9586 631.121 9.76852C523.614 44.2634 481.876 20.8627 476.999 20.8627C472.122 20.8627 276 9.49986 221.5 20.8627C177.154 30.1086 142 10.4999 94.5 17.9999Z" fill="#45392D"/>
</svg>
