<svg width="1280" height="409" viewBox="0 0 1280 409" fill="none" xmlns="http://www.w3.org/2000/svg">
<path d="M70 45C32.1688 30.5351 25.5 34.5 0 48.0659V409H1280V48.0659C1234 82 1214 55.7468 1148 24C1108.5 5 1122 48.0659 1094.5 39C1062.3 28.3859 1047.5 61 987.332 48.0659C930.578 35.8659 910.9 54.5737 887.196 48.0659C863.492 41.5581 858.171 74.0972 796.735 67.5894C735.299 61.0816 690.31 -58.0617 625.971 36.0515C561.633 130.165 477.944 48.0659 473.107 48.0659C468.269 48.0659 381.678 -20.5165 350.234 14.5256C318.791 49.5678 297.506 57.0768 255.903 67.5894C214.301 78.1021 163.5 28.6503 145 34.5C92.7551 51.0199 104 58 70 45Z" fill="#DD9451"/>
</svg>
