<svg width="1280" height="335" viewBox="0 0 1280 335" fill="none" xmlns="http://www.w3.org/2000/svg">
<path d="M94.5 18C51.9735 24.7147 77.3633 21.0356 58 22.5C22 25.2227 46.5 37 0 20.8629V335H1280V38.8909C1229 19.0281 1252.97 44.5079 1195.5 22.5C1164.77 10.7313 1119.73 41.3715 1092 33C1059.54 23.1989 1056.12 32.8062 995.455 20.8629C938.235 9.5973 918.394 26.8722 894.495 20.8629C870.596 14.8535 865.231 44.9003 803.29 38.8909C741.348 32.8816 723.77 -19.9585 631.121 9.76866C523.614 44.2635 481.876 20.8629 476.999 20.8629C472.122 20.8629 276 9.5 221.5 20.8629C177.154 30.1087 142 10.5 94.5 18Z" fill="#C27828"/>
</svg>
