<svg width="1280" height="336" viewBox="0 0 1280 336" fill="none" xmlns="http://www.w3.org/2000/svg">
<path d="M112 29.9998C69.4735 36.7145 72.5 25.9998 53.5 25.9998C17.3972 25.9998 45.5 28.4998 0 21.8623V335.999H1280V39.8904C1229 20.0275 1252.97 45.5073 1195.5 23.4994C1164.77 11.7308 1119.73 42.3709 1092 33.9994C1059.54 24.1983 1048 6 995.455 21.8623C941.865 38.0402 873.832 42.0345 852.5 29.6977C811 5.69774 778.442 45.9 716.5 39.8907C654.558 33.8814 622 -16.6697 526.5 7.33028C416.999 34.8488 420.5 16.4998 392 13.9997C320.357 7.71493 337 37.1173 284.5 21.9998C200.5 29.6173 220 17.9998 184.5 16.4998C143.17 14.7535 159.5 22.4998 112 29.9998Z" fill="#C27828"/>
</svg>
