<svg width="1280" height="409" viewBox="0 0 1280 409" fill="none" xmlns="http://www.w3.org/2000/svg">
<path d="M70 44.9998C32.1688 30.535 25.5 34.4999 0 48.0658V409H1280V48.0658C1234 81.9999 1214 55.7467 1148 23.9998C1108.5 4.99985 1122 48.0658 1094.5 38.9998C1062.3 28.3857 1047.5 60.9999 987.332 48.0658C930.578 35.8658 910.9 54.5736 887.196 48.0658C863.492 41.558 858.171 74.0971 796.735 67.5893C735.299 61.0815 690.31 -58.0619 625.971 36.0513C561.633 130.165 477.944 48.0658 473.107 48.0658C468.269 48.0658 381.678 -20.5167 350.234 14.5255C318.791 49.5676 297.506 57.0766 255.903 67.5893C214.301 78.1019 163.5 28.6501 145 34.4998C92.7551 51.0197 104 57.9999 70 44.9998Z" fill="#5E4D3D"/>
</svg>
